<svg width="27.150879" height="18.100586" viewBox="0 0 27.1509 18.1006" fill="none" xmlns="http://www.w3.org/2000/svg" xmlns:xlink="http://www.w3.org/1999/xlink">
	<desc>
			Created with Pixso.
	</desc>
	<defs/>
	<path id="Icon01" d="M23.75 7.24L23.75 3.62L22.06 3.62L22.06 7.24L18.66 7.24L18.66 9.05L22.06 9.05L22.06 12.67L23.75 12.67L23.75 9.05L27.15 9.05L27.15 7.24L23.75 7.24ZM8.48 7.24L8.48 10.86L13.28 10.86C12.93 11.91 12.28 12.83 11.42 13.48C10.56 14.13 9.53 14.47 8.48 14.48C7.13 14.47 5.84 13.9 4.88 12.88C3.93 11.86 3.39 10.48 3.39 9.05C3.39 7.61 3.93 6.23 4.88 5.21C5.84 4.19 7.13 3.62 8.48 3.62C9.7 3.62 10.87 4.08 11.78 4.93L14 2.2C12.47 0.77 10.51 -0.01 8.48 0C6.23 0 4.07 0.95 2.48 2.65C0.89 4.35 0 6.65 0 9.05C0 11.44 0.89 13.75 2.48 15.44C4.07 17.14 6.23 18.09 8.48 18.1C10.73 18.09 12.89 17.14 14.48 15.44C16.07 13.75 16.96 11.44 16.96 9.05L16.96 7.24L8.48 7.24Z" fill="#FFFFFF" fill-opacity="1.000000" fill-rule="nonzero"/>
</svg>
