<svg width="15.632324" height="20.568848" viewBox="0 0 15.6323 20.5688" fill="none" xmlns="http://www.w3.org/2000/svg" xmlns:xlink="http://www.w3.org/1999/xlink">
	<desc>
			Created with Pixso.
	</desc>
	<defs/>
	<path id="Icon02" d="M6.42 13.6C5.89 16.43 5.25 19.15 3.34 20.56C2.75 16.28 4.21 13.07 4.88 9.66C3.73 7.67 5.02 3.68 7.45 4.66C10.44 5.87 4.86 12.04 8.6 12.81C12.51 13.61 14.11 5.87 11.68 3.35C8.18 -0.29 1.49 3.27 2.31 8.47C2.51 9.75 3.8 10.13 2.83 11.89C0.58 11.38 -0.08 9.57 0 7.16C0.14 3.21 3.47 0.45 6.81 0.06C11.03 -0.42 14.99 1.65 15.54 5.72C16.15 10.3 13.63 15.27 9.12 14.91C7.89 14.82 7.38 14.2 6.42 13.6Z" fill="#FFFFFF" fill-opacity="1.000000" fill-rule="nonzero"/>
</svg>
