<svg width="23.859863" height="19.746094" viewBox="0 0 23.8599 19.7461" fill="none" xmlns="http://www.w3.org/2000/svg" xmlns:xlink="http://www.w3.org/1999/xlink">
	<desc>
			Created with Pixso.
	</desc>
	<defs/>
	<path id="Icon04" d="M23.85 2.33C22.96 2.73 22.01 3 21.04 3.12C22.06 2.5 22.83 1.52 23.2 0.36C22.23 0.94 21.18 1.35 20.09 1.57C19.63 1.07 19.07 0.67 18.46 0.4C17.84 0.13 17.18 -0.01 16.51 3.05e-5C13.81 3.05e-5 11.62 2.23 11.62 4.98C11.62 5.37 11.66 5.75 11.74 6.12C9.81 6.02 7.91 5.51 6.17 4.61C4.43 3.71 2.9 2.45 1.66 0.91C1.22 1.67 0.99 2.53 1 3.41C1 4.24 1.2 5.05 1.58 5.77C1.96 6.5 2.5 7.11 3.17 7.56C2.4 7.54 1.64 7.32 0.96 6.94L0.96 7C0.96 9.42 2.64 11.43 4.88 11.89C4.46 12 4.03 12.06 3.59 12.06C3.28 12.06 2.97 12.03 2.67 11.97C2.99 12.97 3.6 13.84 4.42 14.46C5.24 15.08 6.23 15.42 7.24 15.44C5.5 16.82 3.36 17.57 1.16 17.57C0.77 17.57 0.38 17.54 0 17.5C2.24 18.97 4.84 19.75 7.5 19.74C16.5 19.74 21.42 12.14 21.42 5.55L21.41 4.91C22.37 4.21 23.2 3.34 23.85 2.33Z" fill="#FFFFFF" fill-opacity="1.000000" fill-rule="nonzero"/>
</svg>
